<?xml version="1.0" standalone="no"?>
<!DOCTYPE svg PUBLIC "-//W3C//DTD SVG 1.1//EN" "http://www.w3.org/Graphics/SVG/1.1/DTD/svg11.dtd" >
<svg xmlns="http://www.w3.org/2000/svg">
<metadata></metadata>
<defs>
<font id="stilusemibold" horiz-adv-x="1421" >
<font-face units-per-em="2048" ascent="1638" descent="-410" />
<missing-glyph horiz-adv-x="512" />
<glyph unicode="&#xfb01;" horiz-adv-x="1333" d="M66 895v231h174q0 81 8 141t31 117t62.5 93t105.5 57.5t157 21.5q102 0 238 -26l-19 -219q-90 8 -116 8q-51 0 -86.5 -10t-55.5 -25t-31 -42t-14 -52t-4 -64h668v-1126h-277v895h-391v-895h-276v895h-174z" />
<glyph unicode="&#xfb02;" d="M63 895v231h177q0 82 8 141.5t31.5 116.5t64 92t108.5 56.5t162 21.5q102 0 246 -24l-18 -219q-65 8 -129 8t-104 -11.5t-60 -38.5t-26.5 -59t-6.5 -84h232v-231h-232v-895h-276v895h-177zM928 305v1231h276v-1227q0 -63 17.5 -89.5t54.5 -26.5q3 0 51 6l10 -201 q-54 -29 -153 -29q-65 1 -112 19t-74.5 46.5t-43.5 74t-21 90.5t-5 106z" />
<glyph horiz-adv-x="0" />
<glyph unicode="&#xd;" horiz-adv-x="1007" />
<glyph unicode=" "  horiz-adv-x="512" />
<glyph unicode="&#x09;" horiz-adv-x="512" />
<glyph unicode="&#xa0;" horiz-adv-x="512" />
<glyph unicode="!" horiz-adv-x="708" d="M166 1634h377l-68 -1126h-248zM178 150q0 70 52.5 122t121.5 52q71 0 124.5 -52t53.5 -122q0 -72 -53.5 -124.5t-124.5 -52.5q-69 0 -121.5 52.5t-52.5 124.5z" />
<glyph unicode="&#x22;" horiz-adv-x="714" d="M104 983v553h183v-553h-183zM428 983v553h182v-553h-182z" />
<glyph unicode="#" horiz-adv-x="1513" d="M70 246l55 211h252l72 270h-252l57 213h252l106 395h226l-107 -395h279l104 395h225l-104 -395h231l-57 -213h-231l-74 -270h231l-55 -211h-231l-109 -400h-225l108 400h-276l-109 -400h-225l109 400h-252zM602 457h277l73 270h-278z" />
<glyph unicode="$" horiz-adv-x="1247" d="M104 143l84 256q228 -166 428 -166q103 0 167.5 48t64.5 127q0 78 -60 123.5t-186 86.5q-194 74 -273 120q-165 97 -201 246q-11 46 -11 99q0 173 106 282t273 140v170h249v-170q162 -27 267 -102l-58 -254q-62 50 -145.5 77t-171.5 27q-108 0 -176 -43.5t-68 -117.5 q0 -19 4 -35.5t16 -31.5t21.5 -26t32 -23t36 -19t45 -19t47 -17t53.5 -18l36 -12q69 -24 120 -45t107.5 -51t95 -65t71.5 -80t49 -103.5t16 -128.5q0 -179 -103.5 -293t-294.5 -145v-195h-249v195q-201 36 -392 163z" />
<glyph unicode="%" horiz-adv-x="2138" d="M104 1098q0 184 120.5 309t299.5 125q178 0 298 -125t120 -309q0 -179 -120.5 -304.5t-297.5 -125.5q-178 0 -299 125.5t-121 304.5zM332 1100q0 -92 52.5 -154.5t139.5 -62.5q84 0 136.5 62.5t52.5 154.5q0 93 -52 155t-137 62q-87 0 -139.5 -62t-52.5 -155zM487 -45 l887 1550h238l-885 -1550h-240zM1196 424q0 183 121 308.5t301 125.5q178 0 298 -126t120 -308q0 -180 -120.5 -306t-297.5 -126q-180 0 -301 126t-121 306zM1425 424q0 -92 53 -154.5t140 -62.5q84 0 136 62.5t52 154.5q0 93 -52 155t-136 62q-87 0 -140 -62t-53 -155z" />
<glyph unicode="&#x26;" horiz-adv-x="1656" d="M129 412q0 107 42 193.5t111.5 146.5t174.5 112q-140 155 -140 320q0 141 102.5 235t274.5 94q178 0 283.5 -100.5t105.5 -241.5q0 -103 -60.5 -199t-180.5 -161l252 -285q45 98 45 277h-47v145h421v-145h-129q-5 -151 -29.5 -265t-80.5 -214l254 -269l-174 -178 l-244 248q-78 -78 -198.5 -122t-249.5 -44q-103 0 -196 27t-169.5 80.5t-122 142.5t-45.5 203zM424 442q0 -96 78 -165.5t186 -69.5q137 0 246 115l-328 368q-92 -53 -137 -118t-45 -130zM575 1190q0 -106 113 -219q67 39 102 95t35 112q0 55 -34 92t-95 37q-57 0 -89 -32.5 t-32 -84.5z" />
<glyph unicode="'" horiz-adv-x="495" d="M156 983v553h182v-553h-182z" />
<glyph unicode="(" horiz-adv-x="899" d="M104 627q0 301 118.5 589.5t332.5 491.5h291q-190 -234 -308 -518t-118 -563q0 -314 114.5 -621.5t311.5 -517.5h-291q-214 181 -332.5 484.5t-118.5 654.5z" />
<glyph unicode=")" horiz-adv-x="907" d="M61 -512q197 210 311.5 517.5t114.5 621.5q0 279 -118 563t-308 518h293q214 -203 332.5 -491.5t118.5 -589.5q0 -351 -118.5 -654.5t-332.5 -484.5h-293z" />
<glyph unicode="*" horiz-adv-x="1024" d="M82 1108l106 211l246 -176l-39 340h238l-41 -340l244 186l106 -221l-301 -123l252 -223l-174 -152l-203 271l-211 -271l-174 152l252 223z" />
<glyph unicode="+" horiz-adv-x="1216" d="M41 438v246h444v442h246v-442h445v-246h-445v-440h-246v440h-444z" />
<glyph unicode="," horiz-adv-x="565" d="M82 143q-6 82 48.5 138.5t135.5 56.5q86 0 151.5 -64t65.5 -178q2 -103 -64 -214.5t-186 -198.5l-120 79q60 47 98.5 132t7.5 120z" />
<glyph unicode="-" horiz-adv-x="888" d="M113 436v271h661v-271h-661z" />
<glyph unicode="." horiz-adv-x="565" d="M102 162q0 73 52.5 125.5t126.5 52.5q72 0 126 -53t54 -125q0 -73 -53 -125.5t-127 -52.5t-126.5 51.5t-52.5 126.5z" />
<glyph unicode="/" horiz-adv-x="991" d="M18 -367l725 1964h275l-723 -1964h-277z" />
<glyph unicode="0" horiz-adv-x="1361" d="M129 729q0 123 17 231.5t57 207.5t100.5 171t152 116.5t206.5 49.5h38q115 -5 206 -49.5t151 -116.5t100 -171t57 -207.5t17 -231.5q0 -129 -19 -240.5t-60 -207t-102.5 -164t-150.5 -108.5t-199 -44h-38q-137 4 -241 64.5t-167 164.5t-94 238.5t-31 296.5zM440 711 q2 -101 8 -172t21.5 -137t41.5 -105.5t68 -62.5t101 -23t101.5 23.5t68.5 63t42 106t22 137t8 170.5q0 71 -1.5 124t-7.5 113.5t-16.5 104t-28.5 85.5t-43 68t-62 42t-83 16q-47 0 -83.5 -16.5t-61.5 -42t-43 -68.5t-28 -85.5t-15.5 -104t-7 -113t-1.5 -123.5z" />
<glyph unicode="1" horiz-adv-x="845" d="M121 1227l141 258h393v-1485h-293v1227h-241z" />
<glyph unicode="2" horiz-adv-x="1212" d="M113 0q0 98 10.5 173t42 139.5t61 109t96 99.5t118 91t153.5 103q48 31 74 49t60.5 47.5t51.5 54.5t30 59.5t13 73.5q0 102 -64.5 160t-166.5 58q-80 0 -163.5 -49.5t-131.5 -141.5l-145 188q36 91 113 158.5t168.5 99t187.5 31.5q101 0 191 -30.5t162 -89.5t114 -154 t42 -215q0 -110 -42 -200t-122 -166.5t-218 -168.5q-124 -76 -183 -127t-59 -90h606v-264z" />
<glyph unicode="3" horiz-adv-x="1079" d="M78 111l90 227q39 -45 109 -79t147 -34q94 0 164.5 52.5t70.5 142.5q0 100 -95 155t-269 60v227q147 7 239.5 57t92.5 148q0 77 -60 133.5t-190 56.5q-75 0 -172 -20v246q106 20 211 20q234 0 371 -111.5t137 -287.5q0 -135 -79.5 -229t-199.5 -123q133 -14 227.5 -111.5 t94.5 -245.5q0 -83 -32.5 -158t-93.5 -135t-158.5 -95.5t-217.5 -35.5q-127 0 -225.5 38.5t-161.5 101.5z" />
<glyph unicode="4" horiz-adv-x="1251" d="M57 403v244l561 838h371v-836h187v-248h-187v-401h-293v403h-639zM342 649h354v547z" />
<glyph unicode="5" horiz-adv-x="1128" d="M92 106l82 246q43 -48 118.5 -84.5t156.5 -36.5q118 0 190 65.5t72 162.5q0 108 -72.5 178t-185.5 70q-80 0 -160 -35l-113 86l105 727h651v-248h-414l-45 -289q253 0 396 -131t143 -368q0 -95 -36.5 -181t-102 -152.5t-164.5 -105.5t-215 -39q-261 0 -406 135z" />
<glyph unicode="6" horiz-adv-x="1294" d="M139 684q0 139 20.5 255t71 222.5t130 180.5t204 117.5t285.5 43.5q98 0 174 -10v-248q-60 8 -127 8q-147 0 -242.5 -45.5t-144.5 -129.5t-68 -216q110 101 287 101q87 0 166 -32t143.5 -93t103 -161t38.5 -226q0 -106 -33 -191.5t-84 -138t-117.5 -87.5t-130 -49 t-125.5 -14q-88 0 -165.5 21.5t-149.5 73.5t-123.5 132t-82 204t-30.5 282zM430 559q3 -57 10.5 -101.5t25.5 -90t44.5 -75t71 -48.5t102.5 -19q96 0 155.5 62.5t59.5 163.5q0 241 -235 249q-86 0 -147 -39t-87 -102z" />
<glyph unicode="7" horiz-adv-x="1036" d="M37 1237v248h999l-663 -1485h-328l553 1237h-561z" />
<glyph unicode="8" horiz-adv-x="1310" d="M113 420q0 116 64 222.5t175 160.5q-89 58 -129.5 131.5t-40.5 173.5q0 118 67.5 214.5t175.5 148t230 51.5q128 0 235.5 -52t172.5 -147.5t65 -214.5q0 -101 -41 -174t-129 -133q113 -52 176.5 -158t63.5 -223q0 -129 -73 -233t-196.5 -161t-273.5 -57 q-231 0 -386.5 127.5t-155.5 323.5zM420 449q0 -102 67 -163t168 -61q102 0 170 61t68 163q0 99 -69 166t-169 67q-99 0 -167 -67t-68 -166zM463 1106q0 -87 51 -140t141 -53q87 0 140 53t53 140q0 85 -53.5 144t-139.5 59q-88 0 -140 -58.5t-52 -144.5z" />
<glyph unicode="9" horiz-adv-x="1294" d="M113 1024q0 106 32.5 191.5t83.5 138t118 87.5t130.5 48.5t126.5 13.5q73 0 138.5 -15.5t129 -48t114 -89t89 -133t59.5 -184.5t21 -240q0 -139 -20.5 -256t-71 -224t-130 -181t-204 -117.5t-285.5 -43.5q-75 0 -174 13v247q60 -8 127 -8q217 0 321.5 95.5t133.5 293.5 q-109 -100 -287 -100q-86 0 -165.5 32t-144.5 93.5t-103.5 161.5t-38.5 225zM395 1024q0 -243 236 -248q86 0 146.5 38t86.5 101q-3 57 -10.5 102t-25.5 90t-44.5 75t-71 48.5t-102.5 18.5q-96 0 -155.5 -62t-59.5 -163z" />
<glyph unicode=":" horiz-adv-x="565" d="M102 963q0 75 53.5 127.5t127.5 52.5t126 -52.5t52 -127.5q0 -73 -52.5 -127t-125.5 -54t-127 54.5t-54 126.5zM104 162q0 73 52.5 125.5t126.5 52.5q71 0 124.5 -53t53.5 -125q0 -74 -52.5 -126t-125.5 -52q-75 0 -127 51.5t-52 126.5z" />
<glyph unicode=";" horiz-adv-x="565" d="M82 143q-6 82 48.5 138.5t135.5 56.5q86 0 151.5 -64t65.5 -178q2 -103 -64 -214.5t-186 -198.5l-120 79q60 47 98.5 132t7.5 120zM104 963q0 75 53.5 127.5t127.5 52.5t126 -52.5t52 -127.5q0 -73 -52.5 -127t-125.5 -54t-127 54.5t-54 126.5z" />
<glyph unicode="&#x3c;" horiz-adv-x="1193" d="M20 559l1055 567v-243l-647 -324l651 -323v-244z" />
<glyph unicode="=" horiz-adv-x="1216" d="M41 201v243h1135v-243h-1135zM41 672v243h1135v-243h-1135z" />
<glyph unicode="&#x3e;" horiz-adv-x="1193" d="M113 -8v244l653 323l-649 324v243l1054 -567z" />
<glyph unicode="?" horiz-adv-x="1026" d="M59 1470q88 89 210 136t247 47q191 0 320 -121t129 -315q0 -65 -15.5 -119.5t-38 -92t-62.5 -74t-72.5 -59t-84.5 -53.5q-69 -39 -97 -61.5t-42 -58t-12 -97.5l4 -104h-283q-5 98 -5 172.5t32 140t104 119.5q24 18 69.5 44t79.5 47.5t69 51t54 68t19 84.5q0 80 -53.5 124 t-143.5 44q-162 0 -315 -129zM236 147q0 72 51.5 124.5t122.5 52.5t124.5 -52t53.5 -122q0 -72 -53.5 -124.5t-124.5 -52.5q-70 0 -122 51.5t-52 122.5z" />
<glyph unicode="@" horiz-adv-x="1939" d="M113 604q0 196 72 372.5t197.5 307.5t307.5 208t391 77q149 0 274 -39.5t210 -105.5t144.5 -154t86.5 -184t27 -197q0 -142 -53 -263t-161 -198.5t-251 -77.5q-100 0 -167.5 37t-74.5 109q-131 -113 -278 -113q-117 0 -195 76.5t-78 208.5q0 83 33.5 160.5t88 136 t122.5 102.5t139.5 67t136.5 23q75 0 129 -33t74 -98q125 -12 125 -100q0 -70 -78 -185q-61 -90 -61 -129q0 -49 76 -49q100 0 157.5 80t57.5 199q0 67 -18.5 134t-58.5 130t-96.5 111.5t-139 78t-179.5 29.5q-184 0 -344 -99t-254 -265t-94 -355q0 -152 64 -260 t169.5 -159.5t241.5 -51.5q206 0 410 113l104 -207q-244 -145 -530 -145q-115 0 -220.5 25.5t-198.5 81.5t-161 137.5t-107.5 200.5t-39.5 263zM801 651q0 -38 19.5 -59t53.5 -21q58 0 119 50q42 33 114.5 148.5t72.5 172.5q0 47 -47 47q-64 0 -162.5 -75t-147.5 -173 q-22 -48 -22 -90z" />
<glyph unicode="A" d="M10 0l510 1485h369l522 -1485h-342l-127 428h-467l-125 -428h-340zM549 676h317l-153 516h-13z" />
<glyph unicode="B" horiz-adv-x="1302" d="M180 0v1485h424q269 0 396.5 -104t127.5 -296q0 -209 -137 -317q223 -99 223 -346q0 -195 -125.5 -308.5t-381.5 -113.5h-527zM475 219h197q250 0 250 201q0 120 -78 170.5t-217 50.5h-152v-422zM475 852h137q226 4 226 213q0 106 -69 153.5t-202 47.5h-92v-414z" />
<glyph unicode="C" horiz-adv-x="1478" d="M129 741q0 160 49.5 301.5t139.5 247t224.5 167t295.5 61.5q95 0 179 -23t141.5 -56.5t107 -80t77.5 -84.5t50 -78l-236 -143q-46 92 -120 143t-197 51q-185 0 -286 -132.5t-101 -371.5q0 -242 100.5 -372.5t286.5 -130.5q120 0 194.5 49.5t122.5 138.5l236 -143 q-22 -38 -49 -74t-77 -82.5t-107.5 -79.5t-142 -56.5t-179.5 -23.5q-160 0 -294 61t-224.5 165.5t-140.5 245.5t-50 300z" />
<glyph unicode="D" horiz-adv-x="1548" d="M180 0v1485h539q212 0 372 -97t244 -264.5t84 -380.5q0 -159 -48.5 -295.5t-137 -236t-221 -155.5t-293.5 -56h-539zM475 244h244q185 0 287 129.5t102 369.5q0 237 -103.5 367.5t-285.5 130.5h-244v-997z" />
<glyph unicode="E" horiz-adv-x="1241" d="M180 0v1485h948v-250h-653v-344h543v-250h-543v-391h653v-250h-948z" />
<glyph unicode="F" horiz-adv-x="1204" d="M180 0v1485h936v-250h-641v-344h531v-250h-531v-641h-295z" />
<glyph unicode="G" horiz-adv-x="1576" d="M129 741q0 159 49.5 300.5t138 247t221.5 167.5t291 62q70 0 134 -12t113.5 -31.5t94 -47t76.5 -55.5t60.5 -61.5t46 -59t32.5 -53.5l-235 -147q-99 196 -315 196q-184 0 -285.5 -133.5t-101.5 -372.5q0 -241 101 -371t286 -130q146 0 228.5 73.5t90.5 190.5h-289v244 h551v-748h-196l-27 111q-142 -142 -373 -142q-171 0 -304.5 60t-217.5 165.5t-127 244t-43 302.5z" />
<glyph unicode="H" horiz-adv-x="1474" d="M180 0v1485h295v-580h524v580h295v-1485h-295v657h-524v-657h-295z" />
<glyph unicode="I" horiz-adv-x="655" d="M180 0v1485h295v-1485h-295z" />
<glyph unicode="J" horiz-adv-x="948" d="M14 113l88 219q23 -40 67.5 -65t102.5 -25q106 0 152.5 54t46.5 191v998h295v-1024q1 -255 -103.5 -373.5t-312.5 -118.5q-96 0 -187.5 39.5t-148.5 104.5z" />
<glyph unicode="K" horiz-adv-x="1374" d="M180 0v1485h295v-572l459 572h344l-471 -604l545 -881h-346l-398 625l-133 -170v-455h-295z" />
<glyph unicode="L" horiz-adv-x="1087" d="M180 0v1485h295v-1237h578v-248h-873z" />
<glyph unicode="M" horiz-adv-x="1984" d="M166 0v1485h496l315 -1163l344 1163h481v-1485h-293v1147l-379 -1147h-313l-358 1139v-1139h-293z" />
<glyph unicode="N" horiz-adv-x="1536" d="M166 0v1485h489l420 -1155v1155h295v-1485h-440l-471 1212v-1212h-293z" />
<glyph unicode="O" horiz-adv-x="1660" d="M129 743q0 160 49.5 301t138 246.5t221.5 166.5t291 61q211 0 373 -105.5t246 -280.5t84 -389q0 -160 -49.5 -301t-138.5 -246t-222.5 -166t-292.5 -61q-158 0 -291 61t-221.5 166t-138 246t-49.5 301zM453 743q0 -241 98 -372t278 -131q182 0 280.5 131t98.5 372 q0 240 -99 372t-280 132q-180 0 -278 -132t-98 -372z" />
<glyph unicode="P" horiz-adv-x="1339" d="M180 0v1485h475q275 0 415 -118.5t140 -338.5q0 -124 -37 -216.5t-99.5 -149.5t-158.5 -92t-200.5 -48t-239.5 -14v-508h-295zM475 752q99 0 166.5 6.5t123.5 22.5t88.5 45.5t49.5 74.5t17 109q0 247 -291 247h-154v-505z" />
<glyph unicode="Q" horiz-adv-x="1660" d="M129 743q0 160 49.5 301t138 246.5t221.5 166.5t291 61q211 0 373 -105.5t246 -280.5t84 -389q0 -245 -111.5 -438t-308.5 -280q56 -41 120.5 -67t101.5 -32t38 -2l-82 -237q-152 0 -301.5 78t-247.5 208q-186 22 -326.5 130.5t-213 274.5t-72.5 365zM453 743 q0 -241 98 -372t278 -131q182 0 280.5 131t98.5 372q0 240 -99 372t-280 132q-180 0 -278 -132t-98 -372z" />
<glyph unicode="R" horiz-adv-x="1337" d="M180 0v1485h475q275 0 415 -118.5t140 -342.5q0 -326 -290 -430q51 -47 104 -137.5t90.5 -175.5t98.5 -232q13 -33 20 -49h-320q-100 247 -142 324q-76 142 -170 190q-55 28 -126 33v-547h-295zM475 788h164q281 0 281 232q0 121 -77.5 179t-213.5 58h-154v-469z" />
<glyph unicode="S" horiz-adv-x="1202" d="M84 143l84 256q224 -163 428 -163q104 0 166.5 47.5t62.5 126.5q0 75 -59.5 121.5t-183.5 86.5q-195 74 -272 119q-162 94 -200 236q-14 51 -14 110q0 104 41 188t111 136.5t159 80.5t189 28q240 0 422 -146l-94 -237q-159 120 -312 120q-101 0 -170 -43t-69 -118 q0 -50 41.5 -88t84 -55.5t142.5 -51.5q15 -5 23 -8q86 -29 146 -55t123 -66.5t101.5 -86.5t63 -113.5t24.5 -149.5q0 -208 -139 -327.5t-391 -119.5q-128 0 -261 48t-247 124z" />
<glyph unicode="T" horiz-adv-x="1185" d="M43 1231v254h1100v-254h-404v-1231h-295v1231h-401z" />
<glyph unicode="U" horiz-adv-x="1441" d="M180 602v883h295v-883q0 -97 11 -165t39 -121t79.5 -79t128.5 -26q144 0 197 91t53 290v893h295v-893q0 -623 -545 -623q-553 0 -553 633z" />
<glyph unicode="V" horiz-adv-x="1439" d="M10 1485h344l361 -1184l372 1184h343l-523 -1485h-385z" />
<glyph unicode="W" horiz-adv-x="2189" d="M20 1485h345l317 -1176l272 1176h297l248 -1176l328 1176h342l-469 -1485h-365l-239 963l-250 -963h-365z" />
<glyph unicode="X" horiz-adv-x="1417" d="M20 0l486 764l-486 721h355l327 -504l340 504h355l-492 -721l492 -764h-355l-340 549l-327 -549h-355z" />
<glyph unicode="Y" horiz-adv-x="1406" d="M16 1487h353l331 -643l336 643h355l-543 -879v-608h-295v612z" />
<glyph unicode="Z" horiz-adv-x="1392" d="M72 0l759 1235h-677v250h1165l-756 -1235h758v-250h-1249z" />
<glyph unicode="[" horiz-adv-x="798" d="M180 -514v2052h545v-225h-283v-1600h283v-227h-545z" />
<glyph unicode="\" horiz-adv-x="991" d="M31 1614h276l651 -1911h-274z" />
<glyph unicode="]" horiz-adv-x="798" d="M72 -287h284v1600h-284v225l544 -2v-2050l-544 2v225z" />
<glyph unicode="^" horiz-adv-x="1007" d="M53 850l299 600h307l299 -600h-233l-219 440l-219 -440h-234z" />
<glyph unicode="_" horiz-adv-x="1024" d="M0 -41h1024v-188h-1024v188z" />
<glyph unicode="`" horiz-adv-x="360" d="M-80 1536h291l145 -295h-227z" />
<glyph unicode="a" horiz-adv-x="1261" d="M92 309q0 112 58 196t161 131.5t239 64.5q70 9 146 9q72 0 150 -8v62q0 83 -66.5 126.5t-175.5 43.5q-93 0 -198.5 -33t-198.5 -94l-31 225q71 56 198 91.5t261 35.5q76 0 144 -13t130.5 -43.5t107.5 -77t72 -118.5t27 -162v-745h-239l-29 94q-38 -29 -64.5 -45.5 t-70.5 -38t-98 -31.5t-119 -10q-83 0 -154.5 20t-128 60t-89 107t-32.5 153zM385 326q0 -78 47.5 -114t126.5 -36t156.5 38.5t130.5 111.5v198q-80 -1 -141.5 -5.5t-124.5 -17t-103.5 -33.5t-66 -57t-25.5 -85z" />
<glyph unicode="b" horiz-adv-x="1329" d="M150 0v1536h276v-543q37 66 129 116t203 50q215 0 342 -166.5t127 -445.5q0 -263 -135 -419.5t-373 -156.5q-166 0 -301 131l-25 -102h-243zM428 508q0 -69 10 -121q17 -88 88 -142.5t154 -54.5q119 0 194.5 85.5t75.5 271.5q0 104 -21.5 180.5t-60.5 120t-86.5 64 t-105.5 20.5q-77 0 -145.5 -50t-90.5 -143q-12 -62 -12 -108v-123z" />
<glyph unicode="c" horiz-adv-x="1247" d="M104 567q0 133 43 244.5t118.5 187.5t180 118t226.5 42q178 0 300.5 -75.5t182.5 -198.5l-215 -158q-28 80 -97 132t-167 52q-54 0 -104.5 -20.5t-93 -61t-68 -108.5t-25.5 -154q0 -88 25.5 -157t68 -109t93 -60t104.5 -20q95 0 161.5 46t98.5 124l227 -151 q-71 -124 -196 -196.5t-297 -72.5q-250 0 -408 168t-158 428z" />
<glyph unicode="d" horiz-adv-x="1329" d="M104 547q0 279 126 445.5t341 166.5q112 0 204.5 -50.5t127.5 -115.5v543h277v-1536h-242l-27 102q-135 -131 -301 -131q-237 0 -371.5 156.5t-134.5 419.5zM381 547q0 -181 75.5 -269t192.5 -88q85 0 155 54.5t87 142.5q10 52 10 121v123q0 46 -12 108q-22 93 -90.5 143 t-145.5 50q-120 0 -196 -95t-76 -290z" />
<glyph unicode="e" horiz-adv-x="1294" d="M104 569q0 142 44.5 255.5t122.5 186t179.5 110.5t217.5 38q238 0 390 -148q148 -144 148 -396v-13l-2 -108h-817q12 -150 91.5 -221.5t244.5 -71.5q122 0 221 42.5t139 92.5l56 -184q-78 -85 -195 -134t-264 -49q-258 0 -417 164t-159 436zM393 684h545 q-14 125 -76 183.5t-194 58.5q-230 0 -275 -242z" />
<glyph unicode="f" horiz-adv-x="847" d="M63 895v231h177q0 81 8 141t31 117t62.5 92t105.5 56.5t157 21.5q97 0 238 -24l-19 -219q-90 8 -114 8q-62 0 -101.5 -12.5t-59 -40t-26 -59t-6.5 -81.5h232v-231h-232v-895h-276v895h-177z" />
<glyph unicode="g" horiz-adv-x="1325" d="M104 580q0 263 134.5 419t371.5 156q166 0 301 -131l27 102h242v-1132q0 -244 -136 -353.5t-391 -109.5q-183 0 -288 57l84 197q94 -35 169 -35q141 0 213 55.5t72 182.5v100q-32 -50 -109 -85.5t-194 -35.5q-232 0 -364 166t-132 447zM381 580q0 -191 73 -284t191 -93 q81 0 149 47.5t89 136.5q8 62 8 109v122q0 82 -8 121q-13 82 -81.5 135.5t-152.5 53.5q-117 0 -192.5 -86.5t-75.5 -261.5z" />
<glyph unicode="h" horiz-adv-x="1286" d="M166 0v1536h276v-479q158 98 310 98q201 0 297 -107.5t96 -304.5v-743h-277v711q0 100 -49.5 155.5t-150.5 55.5q-99 0 -226 -72v-850h-276z" />
<glyph unicode="i" horiz-adv-x="620" d="M166 1407q0 63 44 108.5t107 45.5q62 0 107 -45.5t45 -108.5q0 -61 -45.5 -106.5t-106.5 -45.5q-63 0 -107 45t-44 107zM180 0v1126h277v-1126h-277z" />
<glyph unicode="j" horiz-adv-x="663" d="M-23 -160q35 1 66 8t65.5 26t59.5 48t41 78.5t16 114.5v1011h277v-1001q0 -126 -28 -219t-73.5 -149t-115.5 -90.5t-142 -47t-166 -14.5v235zM215 1409q0 62 44.5 107t107.5 45q61 0 106 -45t45 -107t-45 -107t-106 -45q-63 0 -107.5 45t-44.5 107z" />
<glyph unicode="k" horiz-adv-x="1175" d="M166 0v1536h276v-825l320 415h305l-348 -432l440 -694h-311l-305 475l-101 -125v-350h-276z" />
<glyph unicode="l" horiz-adv-x="657" d="M166 303v1233h276v-1229q0 -62 17 -87t55 -25q35 0 49 4l12 -203q-53 -27 -153 -27q-66 1 -113.5 19t-75 46.5t-43 73.5t-20.5 90q-4 38 -4 85v20z" />
<glyph unicode="m" horiz-adv-x="1968" d="M150 0v1126h276v-77q163 106 317 106q230 0 322 -149q99 72 187.5 110.5t191.5 38.5q195 0 290 -107.5t95 -304.5v-743h-277v711q0 100 -49.5 155.5t-152.5 55.5q-95 0 -228 -82q6 -47 6 -97v-743h-276v711q0 100 -50 155.5t-153 55.5q-91 0 -223 -78v-844h-276z" />
<glyph unicode="n" horiz-adv-x="1267" d="M150 0v1126h276v-77q164 110 317 110q195 0 290 -109.5t95 -306.5v-743h-276v711q0 101 -50.5 158t-152.5 57q-90 0 -223 -82v-844h-276z" />
<glyph unicode="o" horiz-adv-x="1343" d="M104 563q0 271 158 433.5t406 162.5q259 0 416 -162t157 -434q0 -264 -157 -429t-414 -165q-172 0 -302.5 81.5t-197 215.5t-66.5 297zM389 563q0 -163 77 -249.5t204 -86.5t206.5 91t79.5 245q0 171 -77.5 256.5t-210.5 85.5q-127 0 -203 -86.5t-76 -255.5z" />
<glyph unicode="p" horiz-adv-x="1345" d="M166 -410v1536h242l24 -102q139 131 303 131q237 0 371.5 -156t134.5 -419q0 -280 -128 -445.5t-349 -165.5q-106 0 -192.5 36.5t-131.5 88.5v-504h-274zM453 483q0 -56 10 -108q19 -87 86 -128.5t151 -41.5q114 0 189.5 93t75.5 282q0 175 -76 261.5t-193 86.5 q-83 0 -151.5 -53.5t-83.5 -135.5q-8 -58 -8 -121v-135z" />
<glyph unicode="q" horiz-adv-x="1329" d="M104 580q0 263 134.5 419t371.5 156q166 0 301 -131l27 102h242v-1536h-277v514q-32 -54 -111.5 -95.5t-201.5 -41.5q-226 0 -356 166.5t-130 446.5zM381 580q0 -191 73 -284t191 -93q81 0 149 47.5t89 136.5q8 62 8 109v122q0 82 -8 121q-13 82 -81.5 135.5t-152.5 53.5 q-117 0 -192.5 -86.5t-75.5 -261.5z" />
<glyph unicode="r" horiz-adv-x="817" d="M150 0v1126h276v-157q106 180 315 180q40 0 60 -4v-260q-21 6 -47 6q-103 0 -197.5 -74.5t-122.5 -189.5q-8 -33 -8 -90v-537h-276z" />
<glyph unicode="s" horiz-adv-x="974" d="M68 160l110 200q60 -77 142.5 -121t168.5 -44q71 0 122 27t51 75q0 17 -5 32t-11 25.5t-21 21.5t-26 18t-34.5 16.5t-39 15t-47 16t-50.5 17.5q-151 55 -232 139t-81 217q0 108 60 188.5t148 118t187 37.5q203 0 356 -123l-108 -198q-45 42 -106 67t-115 25 q-68 0 -113 -32t-45 -93q0 -37 31 -66t80 -50t108.5 -41.5t119.5 -47.5t109 -62.5t80 -92.5t31 -130q0 -83 -35.5 -150t-95.5 -109t-136.5 -64.5t-162.5 -22.5q-127 0 -242 49.5t-198 141.5z" />
<glyph unicode="t" horiz-adv-x="864" d="M45 895v231h219v236h277v-236h262v-231h-262v-526q0 -91 26 -128.5t84 -37.5q54 0 113 18l24 -207q-142 -45 -251 -45q-67 0 -117 19.5t-79.5 51t-47.5 80t-24 98.5q-5 43 -5 96v18v563h-219z" />
<glyph unicode="u" horiz-adv-x="1257" d="M139 383v743h277v-710q0 -100 51 -155.5t156 -55.5q87 0 219 84v837h276v-1126h-276v84q-163 -113 -301 -113q-402 0 -402 412z" />
<glyph unicode="v" horiz-adv-x="1169" d="M8 1126h291l285 -884l286 884h293l-420 -1126h-315z" />
<glyph unicode="w" horiz-adv-x="1794" d="M8 1126h291l252 -886l258 886h176l258 -886l252 886h293l-381 -1126h-313l-197 731l-199 -731h-311z" />
<glyph unicode="x" horiz-adv-x="1249" d="M20 0l420 561l-405 565h336l258 -401l274 401h326l-418 -561l406 -565h-334l-260 389l-273 -389h-330z" />
<glyph unicode="y" horiz-adv-x="1169" d="M8 1126h291l289 -854l282 854h293l-573 -1536h-242l123 340z" />
<glyph unicode="z" horiz-adv-x="1181" d="M53 0l596 893h-497v233h972l-596 -893h588v-233h-1063z" />
<glyph unicode="{" horiz-adv-x="817" d="M113 526v152q5 5 29 26.5t34 32.5t26 32t22.5 44t6.5 49q0 155 7.5 260t29.5 196t57 147.5t95.5 102.5t139.5 72.5t194 47.5l12 -213q-54 -17 -93 -39.5t-65.5 -45.5t-43.5 -58t-25.5 -65t-13.5 -79.5t-6 -89t-3 -107t-6 -119.5q-5 -62 -32.5 -128t-55.5 -104t-39 -38 q6 0 20 -14t31 -40t33.5 -58t28.5 -74.5t14 -83.5q4 -52 6 -119.5t3 -106.5t6 -89t13.5 -80t25.5 -64.5t43.5 -57.5t65.5 -45.5t93 -39.5l-12 -215q-86 16 -151.5 35t-119.5 47t-92 61t-67 82.5t-46 104.5t-28 133.5t-15 163.5t-4 200q0 26 -6.5 49t-22.5 44t-26 32 t-34 32.5t-29 26.5z" />
<glyph unicode="|" horiz-adv-x="624" d="M186 -512v2048h252v-2048h-252z" />
<glyph unicode="}" horiz-adv-x="817" d="M51 -270q54 17 93 39.5t65.5 45t43.5 57.5t26 64.5t13.5 79.5t6 89.5t4 106.5t6.5 120q2 41 13.5 83.5t28 74.5t34 58t31.5 40t20 14q-11 0 -39.5 38t-56 104t-31.5 128q-4 53 -6.5 119.5t-3.5 106.5t-6 89.5t-13.5 80t-25.5 65t-43.5 57.5t-66 45.5t-93.5 39.5l15 213 q86 -15 151.5 -34t119.5 -47t91 -61t66 -82.5t46 -104t27.5 -133.5t14.5 -163.5t4 -200.5q0 -26 7 -49t22.5 -44t26 -32.5t34 -32t29.5 -26.5v-152q-6 -6 -29.5 -26.5t-34 -32t-26 -32.5t-22.5 -44t-7 -49q0 -116 -4 -201t-15 -163.5t-28 -133.5t-46 -104t-66.5 -82 t-91.5 -61t-118.5 -47t-150.5 -35z" />
<glyph unicode="~" horiz-adv-x="1132" d="M27 600q71 85 171 122t207 24t207 -72q77 -36 149.5 -37t124 25.5t87.5 72.5l133 -145q-72 -85 -174 -121.5t-204.5 -26.5t-199.5 56q-222 110 -372 -43z" />
<glyph unicode="&#xa1;" horiz-adv-x="708" d="M166 -94l61 1126h248l68 -1126h-377zM178 1391q0 71 52 123.5t122 52.5q71 0 124.5 -52.5t53.5 -123.5q0 -70 -53.5 -122t-124.5 -52q-69 0 -121.5 52t-52.5 122z" />
<glyph unicode="&#xa2;" horiz-adv-x="1282" d="M129 567q0 232 122 386.5t322 193.5v199h240v-197q133 -22 227 -93t140 -171l-213 -158q-42 117 -154 160v-64h-240v54q-73 -36 -118 -115t-45 -195q0 -120 45 -199t118 -116v59h240v-69q105 39 150 149l227 -151q-60 -101 -155 -169.5t-222 -90.5v-189h-240v191 q-201 40 -322.5 200.5t-121.5 384.5z" />
<glyph unicode="&#xa3;" horiz-adv-x="1243" d="M41 561v189h221v419q0 108 38.5 190.5t105 131t148.5 72.5t177 24q176 0 334 -71l-33 -259q-113 66 -233 66q-104 0 -173 -52t-69 -151v-370h336v-189h-336v-311h645v-250h-940v561h-221z" />
<glyph unicode="&#xa4;" horiz-adv-x="1214" d="M68 262l157 162q-51 91 -51 207q0 112 51 203l-157 161l147 148l152 -156q116 76 239 76q127 0 236 -72l153 156l146 -148l-158 -159q55 -96 55 -209t-51 -207l160 -162l-148 -147l-151 155q-112 -73 -242 -73t-239 73l-152 -155zM389 631q0 -92 62.5 -155.5t154.5 -63.5 q94 0 157.5 63.5t63.5 155.5t-63.5 155.5t-157.5 63.5q-92 0 -154.5 -63.5t-62.5 -155.5z" />
<glyph unicode="&#xa5;" horiz-adv-x="1398" d="M12 1487h353l331 -653l338 653h352l-475 -778h318v-162h-381v-148h381v-161h-381v-238h-295v238h-381v161h381v148h-381v162h311z" />
<glyph unicode="&#xa6;" horiz-adv-x="602" d="M174 246h254v-758h-254v758zM174 778v758h254v-758h-254z" />
<glyph unicode="&#xa7;" horiz-adv-x="1337" d="M137 606q0 167 127 297q-45 72 -45 158q0 196 134 325.5t349 129.5q311 0 435 -259l-158 -176q-22 45 -40.5 74.5t-50.5 62.5t-77 49.5t-104 16.5q-101 0 -171.5 -60t-70.5 -149q0 -78 61.5 -125.5t180.5 -81.5l67.5 -21t71 -24.5t77 -31.5t72 -39t70 -49t57.5 -59.5 t48.5 -73.5t29.5 -87t12 -104q0 -150 -112 -281q43 -72 43 -166q0 -197 -137 -321.5t-359 -124.5q-170 0 -304.5 69t-197.5 164l117 213q56 -103 154 -159t229 -56q104 0 172 61.5t68 145.5q0 87 -61.5 141.5t-190.5 90.5q-157 49 -201 67q-212 87 -270 241q-25 64 -25 142z M385 616q0 -36 15.5 -65t39 -49t61.5 -37.5t74 -29.5t84 -27q25 -7 37 -11q160 -46 246 -102q16 40 16 78q0 165 -274 243q-187 52 -268 103q-31 -45 -31 -103z" />
<glyph unicode="&#xa8;" horiz-adv-x="823" d="M16 1407q0 63 45 108.5t107 45.5t106.5 -45.5t44.5 -108.5q0 -62 -45 -107t-106 -45q-62 0 -107 45.5t-45 106.5zM502 1407q0 63 44.5 108.5t106.5 45.5q63 0 108.5 -45.5t45.5 -108.5q0 -62 -45.5 -107t-108.5 -45q-61 0 -106 45t-45 107z" />
<glyph unicode="&#xa9;" horiz-adv-x="1671" d="M49 748q0 214 105.5 395.5t286.5 287t395 105.5q160 0 305.5 -62.5t250.5 -167.5t167.5 -251t62.5 -307q0 -160 -62.5 -305.5t-167.5 -251t-250.5 -168t-305.5 -62.5t-305.5 62.5t-251 168t-168 251t-62.5 305.5zM246 750q0 -160 79 -296t215 -215t296 -79t296.5 79 t215.5 215t79 296q0 120 -47 229t-126 187.5t-188.5 124.5t-229.5 46q-160 0 -296 -78t-215 -213.5t-79 -295.5zM442 750q0 187 113 302t285 115q121 0 206.5 -53.5t127.5 -134.5l-144 -113q-26 54 -73 88.5t-115 34.5q-38 0 -72.5 -13.5t-64 -41t-47 -75t-17.5 -109.5 q0 -63 18.5 -111.5t48.5 -75t64 -40t70 -13.5q62 0 110 31t74 82l152 -105q-44 -84 -130.5 -135t-209.5 -51q-173 0 -284.5 119.5t-111.5 298.5z" />
<glyph unicode="&#xaa;" horiz-adv-x="804" d="M66 995q0 95 69 159.5t174 87t226 7.5v19q0 45 -43.5 72.5t-106.5 27.5q-122 0 -252 -90l-22 139q45 47 129.5 75t173.5 28q63 0 117.5 -15t100.5 -46t72.5 -85.5t26.5 -126.5v-438h-174l-20 53q-88 -74 -222 -74q-35 0 -68 6t-66.5 21t-58.5 38t-40.5 59.5t-15.5 82.5z M281 1016q0 -39 29 -60.5t69 -21.5q45 0 88.5 21t67.5 59v110q-61 7 -118 -1.5t-96.5 -36t-39.5 -70.5z" />
<glyph unicode="&#xab;" horiz-adv-x="1310" d="M27 565l632 506v-264l-307 -242l307 -254v-264zM575 565l633 506v-264l-307 -242l307 -254v-264z" />
<glyph unicode="&#xac;" horiz-adv-x="1251" d="M27 881v245h1132v-700h-256v455h-876z" />
<glyph unicode="&#xad;" horiz-adv-x="888" d="M113 436v271h661v-271h-661z" />
<glyph unicode="&#xae;" horiz-adv-x="1433" d="M78 856q0 173 86 320.5t233.5 233t321.5 85.5t321 -86t231.5 -233t84.5 -320t-84.5 -320t-231.5 -233t-321 -86q-130 0 -248.5 50.5t-204.5 136.5t-137 204t-51 248zM223 858q0 -99 39 -191t105 -158.5t157.5 -106.5t190.5 -40q135 0 249 68t179 182t65 246 q1 207 -143.5 349.5t-347.5 142.5q-134 0 -247.5 -65.5t-180 -178.5t-66.5 -248zM477 500v743h207q137 0 208 -59.5t71 -169.5q0 -151 -132 -207q46 -33 93 -143l69 -164h-157l-58 135q-29 77 -67 105t-86 32v-272h-148zM625 893q94 0 143 25t49 88q0 124 -145 124h-47v-237 z" />
<glyph unicode="&#xaf;" horiz-adv-x="665" d="M-35 1309v200h735v-200h-735z" />
<glyph unicode="&#xb0;" horiz-adv-x="942" d="M92 1149q0 157 111.5 268t269.5 111q156 0 265.5 -111t109.5 -268q0 -158 -109 -268.5t-266 -110.5q-158 0 -269.5 110.5t-111.5 268.5zM293 1149q0 -75 51.5 -127.5t126.5 -52.5q76 0 128 52.5t52 127.5q0 77 -52 129.5t-128 52.5q-75 0 -126.5 -52.5t-51.5 -129.5z" />
<glyph unicode="&#xb1;" horiz-adv-x="1216" d="M41 0v244h1135v-244h-1135zM41 653v246h444v342h246v-342h445v-246h-445v-329h-246v329h-444z" />
<glyph unicode="&#xb2;" horiz-adv-x="831" d="M39 647q0 53 19 101t45 82t71 69.5t77.5 56t84.5 50.5q108 61 141 89q53 46 53 101q0 49 -38.5 76.5t-96.5 27.5q-63 0 -124 -32t-99 -94l-117 159q46 85 148.5 134t220.5 49q96 0 175.5 -31.5t132 -102t52.5 -170.5q0 -50 -17 -91.5t-49.5 -73.5t-64.5 -53.5t-75 -43.5 q-21 -11 -50 -25.5t-47.5 -24t-37.5 -20.5t-28.5 -22t-11.5 -22h379v-189h-743z" />
<glyph unicode="&#xb3;" horiz-adv-x="704" d="M39 702l65 172q24 -24 76 -45.5t101 -21.5q66 0 105.5 22t39.5 66q0 53 -64 84.5t-180 32.5v131q228 10 228 104q0 92 -164 92q-56 0 -119 -8v174q83 15 158 15q165 0 260.5 -67t95.5 -181q0 -66 -58 -125t-137 -74q90 -5 155 -60.5t65 -144.5q0 -101 -92 -176.5 t-261 -75.5q-85 0 -157.5 23.5t-116.5 62.5z" />
<glyph unicode="&#xb4;" horiz-adv-x="491" d="M66 1241l145 295h291l-209 -295h-227z" />
<glyph unicode="&#xb6;" horiz-adv-x="1507" d="M102 1067q0 230 140.5 351.5t396.5 121.5h682l-2 -2052h-254v1825h-219v-1825h-252v1090q-222 2 -357 130t-135 359z" />
<glyph unicode="&#xb7;" horiz-adv-x="632" d="M137 764q0 74 52.5 127t125.5 53q72 0 126.5 -54t54.5 -126q0 -73 -53.5 -125.5t-127.5 -52.5t-126 51.5t-52 126.5z" />
<glyph unicode="&#xb8;" horiz-adv-x="577" d="M20 -164q83 -22 148 -22q145 0 145 137q0 32 -10 84h242q12 -67 12 -125q0 -159 -88.5 -235t-251.5 -76q-94 0 -197 20v217z" />
<glyph unicode="&#xb9;" horiz-adv-x="628" d="M45 1245l127 240h352v-838h-264v598h-215z" />
<glyph unicode="&#xba;" horiz-adv-x="899" d="M72 1153q0 167 107.5 270t269.5 103q164 0 271 -103t107 -270q0 -165 -107.5 -269t-270.5 -104t-270 105.5t-107 267.5zM276 1155q0 -85 50 -136.5t123 -51.5q75 0 124.5 52t49.5 136q0 87 -49 137.5t-125 50.5q-73 0 -123 -51.5t-50 -136.5z" />
<glyph unicode="&#xbb;" horiz-adv-x="1310" d="M104 47v264l306 254l-306 242v264l633 -506zM653 47v264l305 254l-305 242v264l633 -506z" />
<glyph unicode="&#xbc;" horiz-adv-x="1878" d="M104 1253l127 228h342l-2 -889h-254v661h-213zM336 -47l883 1542h192l-883 -1542h-192zM1001 285v180l365 483h287v-481h127v-182h-127v-238h-219v238h-433zM1210 467h224v301z" />
<glyph unicode="&#xbd;" horiz-adv-x="1927" d="M92 1253l127 228h342v-889h-254v661h-215zM346 -47l883 1542h192l-882 -1542h-193zM1141 23q0 55 6.5 99.5t16 79t31.5 66.5t42 54.5t59.5 51t71.5 49t90 54.5q38 23 56.5 35t41.5 31t32 39t9 45q0 46 -38 73t-93 27q-58 0 -112.5 -27.5t-89.5 -81.5l-101 150 q38 82 125.5 126t190.5 44q91 0 168 -32t128.5 -102t51.5 -167q0 -98 -59.5 -171.5t-202.5 -162.5q-104 -58 -121 -76q-12 -12 -12 -22h389v-182h-680z" />
<glyph unicode="&#xbe;" horiz-adv-x="1937" d="M63 629l64 164q27 -29 78 -51.5t102 -22.5q70 0 118 29.5t48 82.5q0 60 -67 94.5t-187 37.5v135q106 5 171 35t65 86q0 49 -42 81.5t-137 32.5q-48 0 -122 -12v174q100 14 159 14q170 0 266.5 -72.5t96.5 -195.5q0 -71 -59 -133.5t-142 -79.5q95 -11 162.5 -71.5 t67.5 -153.5q0 -47 -23 -93.5t-66 -86t-113.5 -64t-156.5 -24.5q-90 0 -164 25t-119 69zM436 -47l883 1542h192l-882 -1542h-193zM1081 285v180l365 483h287v-481h127v-182h-127v-238h-220v238h-432zM1290 467h223v301z" />
<glyph unicode="&#xbf;" horiz-adv-x="1069" d="M82 -98q0 63 11 114.5t39 107t83.5 105.5t138.5 95q68 35 103.5 73.5t43 69t5.5 72.5l-4 106h284q9 -152 1 -212q-19 -138 -132 -220q-30 -22 -79.5 -51t-81.5 -49.5t-65.5 -49.5t-50 -65.5t-16.5 -81.5q0 -78 54 -123t143 -45q160 0 315 131l113 -209 q-90 -90 -211.5 -136t-251.5 -46q-194 0 -318 119t-124 295zM461 993q0 70 53.5 123t122.5 53q71 0 123.5 -52t52.5 -124q0 -70 -52.5 -122t-123.5 -52q-70 0 -123 52t-53 122z" />
<glyph unicode="&#xc0;" d="M10 0l510 1485h369l522 -1485h-342l-127 428h-467l-125 -428h-340zM412 1894h290l146 -295h-227zM549 676h317l-153 516h-13z" />
<glyph unicode="&#xc1;" d="M10 0l510 1485h369l522 -1485h-342l-127 428h-467l-125 -428h-340zM549 676h317l-153 516h-13zM563 1599l146 295h290l-208 -295h-228z" />
<glyph unicode="&#xc2;" d="M10 0l510 1485h369l522 -1485h-342l-127 428h-467l-125 -428h-340zM342 1602l221 292h285l221 -292h-213l-151 161l-150 -161h-213zM549 676h317l-153 516h-13z" />
<glyph unicode="&#xc3;" d="M10 0l510 1485h369l522 -1485h-342l-127 428h-467l-125 -428h-340zM324 1753q87 105 196.5 118.5t222.5 -63.5q64 -32 133.5 -15.5t102.5 67.5l106 -148q-68 -95 -189.5 -112.5t-221.5 45.5q-68 41 -134.5 28.5t-111.5 -71.5zM549 676h317l-153 516h-13z" />
<glyph unicode="&#xc4;" d="M10 0l510 1485h369l522 -1485h-342l-127 428h-467l-125 -428h-340zM309 1765q0 63 45 108.5t107 45.5t106.5 -45.5t44.5 -108.5q0 -61 -45 -106t-106 -45q-62 0 -107 45t-45 106zM549 676h317l-153 516h-13zM795 1765q0 63 44.5 108.5t106.5 45.5q63 0 108.5 -45.5 t45.5 -108.5q0 -62 -45.5 -106.5t-108.5 -44.5q-62 0 -106.5 45t-44.5 106z" />
<glyph unicode="&#xc5;" d="M10 0l510 1485h369l522 -1485h-342l-127 428h-467l-125 -428h-340zM461 1843q0 102 70.5 176t170.5 74q102 0 175 -74t73 -176q0 -103 -72.5 -175.5t-175.5 -72.5q-102 0 -171.5 71.5t-69.5 176.5zM549 676h317l-153 516h-13zM580 1847q0 -51 37 -90t88 -39q50 0 87 41 t37 88q0 50 -37.5 87.5t-86.5 37.5t-87 -38t-38 -87z" />
<glyph unicode="&#xc6;" horiz-adv-x="1847" d="M10 0l510 1485h1239v-250h-651v-344h541v-250h-541v-391h651v-250h-946v428h-336l-127 -428h-340zM551 676h262v512h-111z" />
<glyph unicode="&#xc7;" horiz-adv-x="1478" d="M129 741q0 160 49.5 301.5t139.5 247t224.5 167t295.5 61.5q95 0 179 -23t141.5 -56.5t107 -80t77.5 -84.5t50 -78l-236 -143q-46 92 -120 143t-197 51q-185 0 -286 -132.5t-101 -371.5q0 -242 100.5 -372.5t286.5 -130.5q120 0 194.5 49.5t122.5 138.5l236 -143 q-19 -34 -43.5 -66.5t-67 -74.5t-92 -75t-120 -60t-148.5 -36q2 -12 2 -36q0 -159 -89 -235.5t-251 -76.5q-89 0 -197 21v217q87 -23 148 -23q145 0 145 137v9q-169 35 -294.5 143.5t-191 266.5t-65.5 345z" />
<glyph unicode="&#xc8;" horiz-adv-x="1241" d="M180 0v1485h948v-250h-653v-344h543v-250h-543v-391h653v-250h-948zM375 1894h291l145 -295h-227z" />
<glyph unicode="&#xc9;" horiz-adv-x="1241" d="M180 0v1485h948v-250h-653v-344h543v-250h-543v-391h653v-250h-948zM526 1599l146 295h291l-209 -295h-228z" />
<glyph unicode="&#xca;" horiz-adv-x="1241" d="M180 0v1485h948v-250h-653v-344h543v-250h-543v-391h653v-250h-948zM305 1602l221 292h285l221 -292h-213l-151 161l-150 -161h-213z" />
<glyph unicode="&#xcb;" horiz-adv-x="1241" d="M180 0v1485h948v-250h-653v-344h543v-250h-543v-391h653v-250h-948zM274 1765q0 63 45 108.5t107 45.5t107 -45.5t45 -108.5q0 -61 -45 -106t-107 -45t-107 45t-45 106zM760 1765q0 63 44.5 108.5t106.5 45.5q63 0 108.5 -45.5t45.5 -108.5q0 -62 -45.5 -106.5 t-108.5 -44.5q-61 0 -106 45t-45 106z" />
<glyph unicode="&#xcc;" horiz-adv-x="655" d="M35 1894h291l145 -295h-227zM180 0v1485h295v-1485h-295z" />
<glyph unicode="&#xcd;" horiz-adv-x="655" d="M180 0v1485h295v-1485h-295zM188 1597l146 295h293l-209 -295h-230z" />
<glyph unicode="&#xce;" horiz-adv-x="655" d="M-35 1602l221 292h285l221 -292h-213l-151 161l-150 -161h-213zM180 0v1485h295v-1485h-295z" />
<glyph unicode="&#xcf;" horiz-adv-x="655" d="M-68 1765q0 63 45 108.5t107 45.5t107 -45.5t45 -108.5q0 -61 -45 -106t-107 -45t-107 45t-45 106zM180 0v1485h295v-1485h-295zM418 1765q0 63 44.5 108.5t106.5 45.5q63 0 108.5 -45.5t45.5 -108.5q0 -62 -45.5 -106.5t-108.5 -44.5q-61 0 -106 45t-45 106z" />
<glyph unicode="&#xd0;" horiz-adv-x="1601" d="M70 674v239h161v572h539q212 0 372 -97t244 -264.5t84 -380.5q0 -160 -48 -296t-136.5 -235.5t-221 -155.5t-294.5 -56h-539v674h-161zM526 244h244q185 0 287 129.5t102 369.5q0 237 -103.5 367.5t-285.5 130.5h-244v-328h283v-239h-283v-430z" />
<glyph unicode="&#xd1;" horiz-adv-x="1536" d="M166 0v1485h489l420 -1155v1155h295v-1485h-440l-471 1212v-1212h-293zM385 1753q87 105 197 118.5t223 -63.5q64 -32 133 -15.5t102 67.5l107 -148q-68 -95 -190 -112.5t-222 45.5q-68 41 -134.5 28.5t-111.5 -71.5z" />
<glyph unicode="&#xd2;" horiz-adv-x="1660" d="M129 743q0 160 49.5 301t138 246.5t221.5 166.5t291 61q211 0 373 -105.5t246 -280.5t84 -389q0 -160 -49.5 -301t-138.5 -246t-222.5 -166t-292.5 -61q-158 0 -291 61t-221.5 166t-138 246t-49.5 301zM453 743q0 -241 98 -372t278 -131q182 0 280.5 131t98.5 372 q0 240 -99 372t-280 132q-180 0 -278 -132t-98 -372zM537 1894h290l146 -295h-228z" />
<glyph unicode="&#xd3;" horiz-adv-x="1628" d="M129 743q0 160 49.5 301t138 246.5t221.5 166.5t291 61q211 0 373 -105.5t246 -280.5t84 -389q0 -160 -49.5 -301t-138.5 -246t-222.5 -166t-292.5 -61q-158 0 -291 61t-221.5 166t-138 246t-49.5 301zM453 743q0 -241 98 -372t278 -131q182 0 280.5 131t98.5 372 q0 240 -99 372t-280 132q-180 0 -278 -132t-98 -372zM676 1581l147 295h291l-209 -295h-229z" />
<glyph unicode="&#xd4;" horiz-adv-x="1660" d="M129 743q0 160 49.5 301t138 246.5t221.5 166.5t291 61q211 0 373 -105.5t246 -280.5t84 -389q0 -160 -49.5 -301t-138.5 -246t-222.5 -166t-292.5 -61q-158 0 -291 61t-221.5 166t-138 246t-49.5 301zM453 743q0 -241 98 -372t278 -131q182 0 280.5 131t98.5 372 q0 240 -99 372t-280 132q-180 0 -278 -132t-98 -372zM467 1602l221 292h285l221 -292h-213l-152 161l-149 -161h-213z" />
<glyph unicode="&#xd5;" horiz-adv-x="1660" d="M129 743q0 160 49.5 301t138 246.5t221.5 166.5t291 61q211 0 373 -105.5t246 -280.5t84 -389q0 -160 -49.5 -301t-138.5 -246t-222.5 -166t-292.5 -61q-158 0 -291 61t-221.5 166t-138 246t-49.5 301zM451 1753q87 105 196.5 118.5t222.5 -63.5q64 -32 133.5 -15.5 t102.5 67.5l106 -148q-68 -95 -189.5 -112.5t-221.5 45.5q-68 41 -134.5 28.5t-111.5 -71.5zM453 743q0 -241 98 -372t278 -131q182 0 280.5 131t98.5 372q0 240 -99 372t-280 132q-180 0 -278 -132t-98 -372z" />
<glyph unicode="&#xd6;" horiz-adv-x="1628" d="M113 743q0 160 49.5 301t138.5 246.5t222 166.5t292 61q210 0 371.5 -105.5t245.5 -280.5t84 -389t-84 -389t-245.5 -280t-371.5 -105q-159 0 -292 61t-222 166t-138.5 246t-49.5 301zM418 1731q0 63 44.5 108t106.5 45q63 0 108.5 -45t45.5 -108q0 -62 -45.5 -107 t-108.5 -45q-61 0 -106 45t-45 107zM436 743q0 -243 99 -378.5t280 -135.5q179 0 278 136t99 378q0 241 -99 377.5t-278 136.5q-180 0 -279.5 -136.5t-99.5 -377.5zM905 1731q0 63 45 108t107 45t106.5 -45t44.5 -108q0 -62 -45 -107t-106 -45t-106.5 45.5t-45.5 106.5z" />
<glyph unicode="&#xd7;" horiz-adv-x="1140" d="M23 123l389 389l-389 387l157 158l391 -389l387 389l158 -158l-387 -385l389 -391l-157 -158l-390 389l-391 -389z" />
<glyph unicode="&#xd8;" horiz-adv-x="1660" d="M129 743q0 160 49.5 301t138 246.5t221.5 166.5t291 61q156 0 293 -62l74 133l174 -98l-80 -145q116 -106 179 -263t63 -340q0 -160 -49.5 -301t-138.5 -246t-222.5 -166t-292.5 -61q-149 0 -272 54l-80 -142l-174 96l84 150q-124 107 -191 267.5t-67 348.5zM449 743 q0 -219 83 -352l461 830q-71 36 -164 36q-179 0 -279.5 -137t-100.5 -377zM686 258q69 -29 143 -29q181 0 282 136t101 378q0 199 -71 332z" />
<glyph unicode="&#xd9;" horiz-adv-x="1441" d="M180 602v883h295v-883q0 -97 11 -165t39 -121t79.5 -79t128.5 -26q144 0 197 91t53 290v893h295v-893q0 -623 -545 -623q-553 0 -553 633zM426 1894h291l145 -295h-227z" />
<glyph unicode="&#xda;" horiz-adv-x="1441" d="M180 602v883h295v-883q0 -97 11 -165t39 -121t79.5 -79t128.5 -26q144 0 197 91t53 290v893h295v-893q0 -623 -545 -623q-553 0 -553 633zM578 1599l145 295h291l-209 -295h-227z" />
<glyph unicode="&#xdb;" horiz-adv-x="1441" d="M180 602v883h295v-883q0 -97 11 -165t39 -121t79.5 -79t128.5 -26q144 0 197 91t53 290v893h295v-893q0 -623 -545 -623q-553 0 -553 633zM356 1602l222 292h284l221 -292h-213l-151 161l-150 -161h-213z" />
<glyph unicode="&#xdc;" horiz-adv-x="1441" d="M180 602v883h295v-883q0 -97 11 -165t39 -121t79.5 -79t128.5 -26q144 0 197 91t53 290v893h295v-893q0 -623 -545 -623q-553 0 -553 633zM324 1765q0 63 44.5 108.5t106.5 45.5t107 -45.5t45 -108.5q0 -61 -45 -106t-107 -45q-61 0 -106 45t-45 106zM809 1765 q0 63 45 108.5t107 45.5q63 0 108 -45.5t45 -108.5q0 -62 -45 -106.5t-108 -44.5q-62 0 -107 45t-45 106z" />
<glyph unicode="&#xdd;" horiz-adv-x="1406" d="M16 1487h353l331 -643l336 643h355l-543 -879v-608h-295v612zM559 1599l146 295h290l-209 -295h-227z" />
<glyph unicode="&#xde;" horiz-adv-x="1249" d="M180 0v1485h297v-201q327 0 493.5 -115t166.5 -364q0 -121 -35.5 -212t-93.5 -146t-146 -89t-179 -47t-206 -14v-297h-297zM477 549q68 1 113.5 4.5t91 12.5t73 25t50 42t32 64.5t9.5 90.5q0 75 -18.5 121.5t-64 74.5t-112.5 38.5t-174 11.5v-485z" />
<glyph unicode="&#xdf;" horiz-adv-x="1400" d="M166 0v1065q0 88 11.5 155.5t45.5 133t91 108t152 68.5t224 26q113 0 210 -25t174.5 -75.5t122 -135.5t44.5 -196q0 -121 -78.5 -213.5t-189.5 -119.5q60 -8 114 -36.5t99 -77t71.5 -124.5t26.5 -168q0 -130 -69 -225.5t-179 -141t-245 -45.5q-77 0 -177 21v266 q85 -18 140 -18q104 0 168.5 47.5t64.5 140.5q0 113 -90 176t-254 68v227q318 15 318 201q0 91 -63.5 146t-192.5 55q-147 0 -205 -57.5t-58 -190.5v-1055h-276z" />
<glyph unicode="&#xe0;" horiz-adv-x="1261" d="M92 309q0 112 58 196t161 131.5t239 64.5t296 1v62q0 83 -66.5 126.5t-175.5 43.5q-93 0 -198.5 -33t-198.5 -94l-31 225q71 56 198 91.5t261 35.5q76 0 144 -13t130.5 -43.5t107.5 -77t72 -118.5t27 -162v-745h-239l-29 94q-38 -29 -64.5 -45.5t-70.5 -38t-98 -31.5 t-119 -10q-83 0 -154.5 20t-128 60t-89 107t-32.5 153zM346 1536h291l145 -295h-227zM385 326q0 -78 47.5 -114t126.5 -36t156.5 38.5t130.5 111.5v198q-80 -1 -141.5 -5.5t-124.5 -17t-103.5 -33.5t-66 -57t-25.5 -85z" />
<glyph unicode="&#xe1;" horiz-adv-x="1261" d="M92 309q0 112 58 196t161 131.5t239 64.5t296 1v62q0 83 -66.5 126.5t-175.5 43.5q-93 0 -198.5 -33t-198.5 -94l-31 225q71 56 198 91.5t261 35.5q76 0 144 -13t130.5 -43.5t107.5 -77t72 -118.5t27 -162v-745h-239l-29 94q-38 -29 -64.5 -45.5t-70.5 -38t-98 -31.5 t-119 -10q-83 0 -154.5 20t-128 60t-89 107t-32.5 153zM385 326q0 -78 47.5 -114t126.5 -36t156.5 38.5t130.5 111.5v198q-80 -1 -141.5 -5.5t-124.5 -17t-103.5 -33.5t-66 -57t-25.5 -85zM498 1241l145 295h291l-209 -295h-227z" />
<glyph unicode="&#xe2;" horiz-adv-x="1261" d="M92 309q0 112 58 196t161 131.5t239 64.5t296 1v62q0 83 -66.5 126.5t-175.5 43.5q-93 0 -198.5 -33t-198.5 -94l-31 225q71 56 198 91.5t261 35.5q76 0 144 -13t130.5 -43.5t107.5 -77t72 -118.5t27 -162v-745h-239l-29 94q-38 -29 -64.5 -45.5t-70.5 -38t-98 -31.5 t-119 -10q-83 0 -154.5 20t-128 60t-89 107t-32.5 153zM276 1243l222 293h284l222 -293h-213l-152 162l-150 -162h-213zM385 326q0 -78 47.5 -114t126.5 -36t156.5 38.5t130.5 111.5v198q-80 -1 -141.5 -5.5t-124.5 -17t-103.5 -33.5t-66 -57t-25.5 -85z" />
<glyph unicode="&#xe3;" horiz-adv-x="1261" d="M92 309q0 112 58 196t161 131.5t239 64.5t296 1v62q0 83 -66.5 126.5t-175.5 43.5q-93 0 -198.5 -33t-198.5 -94l-31 225q71 56 198 91.5t261 35.5q76 0 144 -13t130.5 -43.5t107.5 -77t72 -118.5t27 -162v-745h-239l-29 94q-38 -29 -64.5 -45.5t-70.5 -38t-98 -31.5 t-119 -10q-83 0 -154.5 20t-128 60t-89 107t-32.5 153zM260 1395q87 105 197 118.5t223 -63.5q64 -32 133 -16t102 67l107 -147q-68 -95 -190 -113t-222 45q-68 41 -134 28.5t-111 -71.5zM385 326q0 -78 47.5 -114t126.5 -36t156.5 38.5t130.5 111.5v198q-80 -1 -141.5 -5.5 t-124.5 -17t-103.5 -33.5t-66 -57t-25.5 -85z" />
<glyph unicode="&#xe4;" horiz-adv-x="1261" d="M92 309q0 112 58 196t161 131.5t239 64.5t296 1v62q0 83 -66.5 126.5t-175.5 43.5q-93 0 -198.5 -33t-198.5 -94l-31 225q71 56 198 91.5t261 35.5q76 0 144 -13t130.5 -43.5t107.5 -77t72 -118.5t27 -162v-745h-239l-29 94q-38 -29 -64.5 -45.5t-70.5 -38t-98 -31.5 t-119 -10q-83 0 -154.5 20t-128 60t-89 107t-32.5 153zM246 1407q0 63 44.5 108.5t106.5 45.5t107 -45.5t45 -108.5q0 -61 -45.5 -106.5t-106.5 -45.5t-106 45t-45 107zM385 326q0 -78 47.5 -114t126.5 -36t156.5 38.5t130.5 111.5v198q-80 -1 -141.5 -5.5t-124.5 -17 t-103.5 -33.5t-66 -57t-25.5 -85zM731 1407q0 63 45 108.5t107 45.5q63 0 108 -45.5t45 -108.5q0 -62 -45 -107t-108 -45q-61 0 -106.5 45.5t-45.5 106.5z" />
<glyph unicode="&#xe5;" horiz-adv-x="1261" d="M92 309q0 112 58 196t161 131.5t239 64.5t296 1v62q0 83 -66.5 126.5t-175.5 43.5q-93 0 -198.5 -33t-198.5 -94l-31 225q71 56 198 91.5t261 35.5q76 0 144 -13t130.5 -43.5t107.5 -77t72 -118.5t27 -162v-745h-239l-29 94q-38 -29 -64.5 -45.5t-70.5 -38t-98 -31.5 t-119 -10q-83 0 -154.5 20t-128 60t-89 107t-32.5 153zM385 326q0 -78 47.5 -114t126.5 -36t156.5 38.5t130.5 111.5v198q-80 -1 -141.5 -5.5t-124.5 -17t-103.5 -33.5t-66 -57t-25.5 -85zM397 1485q0 102 70.5 176t171.5 74q102 0 175 -74t73 -176q0 -103 -72.5 -175.5 t-175.5 -72.5t-172.5 72t-69.5 176zM516 1489q0 -51 37 -90t88 -39q50 0 87.5 41t37.5 88q0 49 -38 87t-87 38t-87 -38t-38 -87z" />
<glyph unicode="&#xe6;" horiz-adv-x="1990" d="M92 309q0 109 54.5 192t152 132t226 71t282.5 17q8 35 29 100q-21 56 -83 84.5t-149 28.5q-93 0 -198.5 -33t-198.5 -94l-31 225q72 57 199.5 94t259.5 37q238 0 366 -114q148 112 357 112q154 0 277.5 -63t197.5 -188.5t74 -293.5l-2 -122h-828q12 -150 91.5 -221.5 t244.5 -71.5q121 0 221.5 43t137.5 92l57 -184q-78 -85 -195 -134t-264 -49q-137 0 -250 49t-188 140l-33 -31q-3 -2 -26 -20.5t-29 -22.5t-29 -20.5t-33.5 -22t-35 -18.5t-41 -18t-43 -14t-50.5 -12.5t-54 -6.5t-62 -3q-83 0 -154.5 20t-128 60t-89 107t-32.5 153zM385 326 q0 -78 47.5 -114t126.5 -36q76 0 151 35.5t128 103.5q-37 93 -43 213q-91 -3 -158.5 -13.5t-128 -32t-92 -61t-31.5 -95.5zM1083 684h539q-15 122 -79.5 181t-184.5 59q-234 0 -275 -240z" />
<glyph unicode="&#xe7;" horiz-adv-x="1247" d="M104 567q0 133 43 244.5t118.5 187.5t180 118t226.5 42q178 0 300.5 -75.5t182.5 -198.5l-215 -158q-28 80 -97 132t-167 52q-54 0 -104.5 -20.5t-93 -61t-68 -108.5t-25.5 -154q0 -88 25.5 -157t68 -109t93 -60t104.5 -20q95 0 161.5 46t98.5 124l227 -151 q-56 -98 -147 -165t-213 -91q4 -54 4 -74q0 -159 -88.5 -235t-251.5 -76q-94 0 -197 20v217q83 -22 148 -22q145 0 145 137q0 19 -2 29q-207 37 -332 197.5t-125 389.5z" />
<glyph unicode="&#xe8;" horiz-adv-x="1294" d="M104 569q0 142 44.5 255.5t122.5 186t179.5 110.5t217.5 38q238 0 390 -148t148 -409l-2 -108h-817q12 -150 91.5 -221.5t244.5 -71.5q122 0 221 42.5t139 92.5l56 -184q-78 -85 -195 -134t-264 -49q-258 0 -417 164t-159 436zM375 1536h291l145 -295h-227zM393 684h545 q-14 125 -76 183.5t-194 58.5q-230 0 -275 -242z" />
<glyph unicode="&#xe9;" horiz-adv-x="1294" d="M104 569q0 142 44.5 255.5t122.5 186t179.5 110.5t217.5 38q238 0 390 -148t148 -409l-2 -108h-817q12 -150 91.5 -221.5t244.5 -71.5q122 0 221 42.5t139 92.5l56 -184q-78 -85 -195 -134t-264 -49q-258 0 -417 164t-159 436zM393 684h545q-14 125 -76 183.5t-194 58.5 q-230 0 -275 -242zM526 1241l146 295h291l-209 -295h-228z" />
<glyph unicode="&#xea;" horiz-adv-x="1294" d="M104 569q0 142 44.5 255.5t122.5 186t179.5 110.5t217.5 38q238 0 390 -148t148 -409l-2 -108h-817q12 -150 91.5 -221.5t244.5 -71.5q122 0 221 42.5t139 92.5l56 -184q-78 -85 -195 -134t-264 -49q-258 0 -417 164t-159 436zM305 1243l221 293h285l221 -293h-213 l-151 162l-150 -162h-213zM393 684h545q-14 125 -76 183.5t-194 58.5q-230 0 -275 -242z" />
<glyph unicode="&#xeb;" horiz-adv-x="1294" d="M104 569q0 142 44.5 255.5t122.5 186t179.5 110.5t217.5 38q238 0 390 -148t148 -409l-2 -108h-817q12 -150 91.5 -221.5t244.5 -71.5q122 0 221 42.5t139 92.5l56 -184q-78 -85 -195 -134t-264 -49q-258 0 -417 164t-159 436zM272 1407q0 63 45 108.5t107 45.5 t106.5 -45.5t44.5 -108.5q0 -62 -45 -107t-106 -45q-62 0 -107 45.5t-45 106.5zM393 684h545q-14 125 -76 183.5t-194 58.5q-230 0 -275 -242zM758 1407q0 63 44.5 108.5t106.5 45.5q63 0 108.5 -45.5t45.5 -108.5q0 -62 -45.5 -107t-108.5 -45q-61 0 -106 45t-45 107z" />
<glyph unicode="&#xec;" horiz-adv-x="591" d="M-8 1536h291l147 -295h-229zM166 0v1126h276v-1126h-276z" />
<glyph unicode="&#xed;" horiz-adv-x="591" d="M166 0v1126h276v-1126h-276zM172 1241l145 295h293l-209 -295h-229z" />
<glyph unicode="&#xee;" horiz-adv-x="591" d="M-63 1243l219 293h286l220 -293h-211l-152 162l-152 -162h-210zM166 0v1126h276v-1126h-276z" />
<glyph unicode="&#xef;" horiz-adv-x="591" d="M-111 1409q0 62 44.5 107t107.5 45q61 0 106.5 -45.5t45.5 -106.5t-46 -106.5t-106 -45.5q-63 0 -107.5 45t-44.5 107zM166 0v1126h276v-1126h-276zM393 1409q0 61 45.5 106.5t106.5 45.5q63 0 108 -45t45 -107t-45 -107t-108 -45q-61 0 -106.5 45.5t-45.5 106.5z" />
<glyph unicode="&#xf0;" horiz-adv-x="1333" d="M104 547q0 269 131.5 422t356.5 153q97 0 188.5 -38t116.5 -89q0 88 -59.5 175.5t-169.5 148.5l-209 -150l-84 117l137 96q-113 32 -236 35l154 139q148 -3 270 -38l177 124l79 -116l-102 -74q94 -56 160.5 -141t103.5 -194.5t53.5 -229.5t16.5 -266q0 -151 -35 -268.5 t-90 -188t-130.5 -115.5t-147.5 -61.5t-150 -16.5q-254 0 -392.5 155.5t-138.5 420.5zM381 549q0 -182 76 -270.5t194 -88.5q111 0 183.5 92.5t72.5 276.5q0 68 -15.5 129t-46 112t-83.5 81t-121 30q-112 0 -186 -88t-74 -274z" />
<glyph unicode="&#xf1;" horiz-adv-x="1267" d="M150 0v1126h276v-77q164 110 317 110q195 0 290 -109.5t95 -306.5v-743h-276v711q0 101 -50.5 158t-152.5 57q-90 0 -223 -82v-844h-276zM266 1391q87 105 197 118.5t223 -63.5q64 -32 133.5 -16t102.5 67l106 -147q-68 -95 -190 -113t-222 45q-68 41 -134 28.5 t-111 -71.5z" />
<glyph unicode="&#xf2;" horiz-adv-x="1343" d="M104 563q0 271 158 433.5t406 162.5q259 0 416 -162t157 -434q0 -264 -157 -429t-414 -165q-172 0 -302.5 81.5t-197 215.5t-66.5 297zM377 1536h291l145 -295h-227zM389 563q0 -163 77 -249.5t204 -86.5t206.5 91t79.5 245q0 171 -77.5 256.5t-210.5 85.5 q-127 0 -203 -86.5t-76 -255.5z" />
<glyph unicode="&#xf3;" horiz-adv-x="1343" d="M104 563q0 271 158 433.5t406 162.5q259 0 416 -162t157 -434q0 -264 -157 -429t-414 -165q-172 0 -302.5 81.5t-197 215.5t-66.5 297zM389 563q0 -163 77 -249.5t204 -86.5t206.5 91t79.5 245q0 171 -77.5 256.5t-210.5 85.5q-127 0 -203 -86.5t-76 -255.5zM528 1241 l146 295h291l-209 -295h-228z" />
<glyph unicode="&#xf4;" horiz-adv-x="1343" d="M104 563q0 271 158 433.5t406 162.5q259 0 416 -162t157 -434q0 -264 -157 -429t-414 -165q-172 0 -302.5 81.5t-197 215.5t-66.5 297zM307 1243l221 293h285l221 -293h-213l-151 162l-150 -162h-213zM389 563q0 -163 77 -249.5t204 -86.5t206.5 91t79.5 245 q0 171 -77.5 256.5t-210.5 85.5q-127 0 -203 -86.5t-76 -255.5z" />
<glyph unicode="&#xf5;" horiz-adv-x="1343" d="M104 563q0 271 158 433.5t406 162.5q259 0 416 -162t157 -434q0 -264 -157 -429t-414 -165q-172 0 -302.5 81.5t-197 215.5t-66.5 297zM291 1395q87 105 197 118.5t223 -63.5q64 -32 133 -16t102 67l107 -147q-68 -95 -190 -113t-222 45q-68 41 -134.5 28.5t-111.5 -71.5 zM389 563q0 -163 77 -249.5t204 -86.5t206.5 91t79.5 245q0 171 -77.5 256.5t-210.5 85.5q-127 0 -203 -86.5t-76 -255.5z" />
<glyph unicode="&#xf6;" horiz-adv-x="1343" d="M104 563q0 271 158 433.5t406 162.5q259 0 416 -162t157 -434q0 -264 -157 -429t-414 -165q-172 0 -302.5 81.5t-197 215.5t-66.5 297zM274 1407q0 63 45 108.5t107 45.5t107 -45.5t45 -108.5q0 -61 -45 -106.5t-107 -45.5t-107 45.5t-45 106.5zM389 563 q0 -163 77 -249.5t204 -86.5t206.5 91t79.5 245q0 171 -77.5 256.5t-210.5 85.5q-127 0 -203 -86.5t-76 -255.5zM760 1407q0 63 44.5 108.5t106.5 45.5q63 0 108.5 -45.5t45.5 -108.5q0 -62 -45.5 -107t-108.5 -45q-61 0 -106 45t-45 107z" />
<glyph unicode="&#xf7;" horiz-adv-x="1216" d="M41 438v246h1135v-246h-1135zM453 989q0 66 44.5 111t110.5 45t111 -45t45 -111t-45 -113t-111 -47t-110.5 47t-44.5 113zM455 133q0 66 43.5 111t109.5 45q63 0 109.5 -46.5t46.5 -109.5q0 -66 -45 -109.5t-111 -43.5q-68 0 -110.5 43t-42.5 110z" />
<glyph unicode="&#xf8;" horiz-adv-x="1306" d="M84 563q0 271 158.5 433.5t406.5 162.5q175 0 307 -78l91 115l118 -88l-94 -119q150 -159 150 -426q0 -264 -156.5 -428t-413.5 -164q-170 0 -305 82l-88 -114l-117 88l92 120q-149 165 -149 416zM369 563q0 -114 39 -190l387 497q-62 33 -148 33q-125 0 -201.5 -86.5 t-76.5 -253.5zM508 262q57 -35 143 -35q128 0 207.5 91.5t79.5 244.5q0 121 -41 201z" />
<glyph unicode="&#xf9;" horiz-adv-x="1257" d="M139 383v743h277v-710q0 -100 51 -155.5t156 -55.5q87 0 219 84v837h276v-1126h-276v84q-163 -113 -301 -113q-402 0 -402 412zM328 1536h290l146 -295h-227z" />
<glyph unicode="&#xfa;" horiz-adv-x="1257" d="M139 383v743h277v-710q0 -100 51 -155.5t156 -55.5q87 0 219 84v837h276v-1126h-276v84q-163 -113 -301 -113q-402 0 -402 412zM479 1241l146 295h290l-208 -295h-228z" />
<glyph unicode="&#xfb;" horiz-adv-x="1257" d="M139 383v743h277v-710q0 -100 51 -155.5t156 -55.5q87 0 219 84v837h276v-1126h-276v84q-163 -113 -301 -113q-402 0 -402 412zM258 1243l221 293h285l221 -293h-213l-151 162l-150 -162h-213z" />
<glyph unicode="&#xfc;" horiz-adv-x="1257" d="M139 383v743h277v-710q0 -100 51 -155.5t156 -55.5q87 0 219 84v837h276v-1126h-276v84q-163 -113 -301 -113q-402 0 -402 412zM225 1407q0 63 45 108.5t107 45.5t106.5 -45.5t44.5 -108.5q0 -62 -45 -107t-106 -45t-106.5 45.5t-45.5 106.5zM711 1407q0 63 44.5 108.5 t106.5 45.5q63 0 108.5 -45.5t45.5 -108.5q0 -62 -45.5 -107t-108.5 -45q-61 0 -106 45t-45 107z" />
<glyph unicode="&#xfd;" horiz-adv-x="1169" d="M8 1126h291l289 -854l282 854h293l-573 -1536h-242l123 340zM449 1241l145 295h291l-209 -295h-227z" />
<glyph unicode="&#xfe;" horiz-adv-x="1345" d="M166 -410v1919h274v-477q137 123 295 123q237 0 371.5 -156t134.5 -419q0 -280 -128 -446.5t-349 -166.5q-105 0 -191.5 37.5t-132.5 89.5v-504h-274zM453 483q0 -56 10 -108q19 -87 86 -129.5t151 -42.5q114 0 189.5 94t75.5 283q0 175 -76 261.5t-193 86.5 q-83 0 -151.5 -53.5t-83.5 -135.5q-8 -58 -8 -121v-135z" />
<glyph unicode="&#xff;" horiz-adv-x="1169" d="M8 1126h291l289 -854l282 854h293l-573 -1536h-242l123 340zM197 1407q0 63 44.5 108.5t106.5 45.5t107 -45.5t45 -108.5q0 -61 -45 -106.5t-107 -45.5q-61 0 -106 45t-45 107zM682 1407q0 63 45 108.5t107 45.5q63 0 108 -45.5t45 -108.5q0 -62 -45 -107t-108 -45 q-62 0 -107 45.5t-45 106.5z" />
<glyph unicode="&#x152;" horiz-adv-x="1976" d="M129 743q0 212 84 380t244.5 265t371.5 97h1059v-250h-653v-344h543v-250h-543v-391h653v-250h-1059q-211 0 -371 96.5t-244.5 264.5t-84.5 382zM449 743q0 -240 100.5 -366.5t286.5 -126.5h106v985h-106q-185 0 -286 -127.5t-101 -364.5z" />
<glyph unicode="&#x153;" horiz-adv-x="2156" d="M104 563q0 271 158 433.5t406 162.5q275 0 428 -180q77 89 188.5 135.5t241.5 46.5q154 0 277 -63t196.5 -188.5t73.5 -293.5l-2 -122h-828q14 -150 93.5 -221.5t242.5 -71.5q123 0 223 42.5t137 92.5l58 -184q-78 -85 -195.5 -134t-265.5 -49q-136 0 -248.5 48.5 t-187.5 138.5q-157 -187 -430 -187q-172 0 -302.5 81.5t-197 215.5t-66.5 297zM389 563q0 -163 77 -249.5t204 -86.5t206.5 91t79.5 245q0 172 -78 260t-210 88q-126 0 -202.5 -89.5t-76.5 -258.5zM1251 684h539q-15 122 -80 181t-186 59q-232 0 -273 -240z" />
<glyph unicode="&#x178;" horiz-adv-x="1406" d="M16 1487h353l331 -643l336 643h355l-543 -879v-608h-295v612zM305 1765q0 63 45 108.5t107 45.5t107.5 -45.5t45.5 -108.5q0 -61 -45.5 -106t-107.5 -45t-107 45t-45 106zM791 1765q0 63 44.5 108.5t106.5 45.5q63 0 108.5 -45.5t45.5 -108.5q0 -62 -45.5 -106.5 t-108.5 -44.5q-62 0 -106.5 45t-44.5 106z" />
<glyph unicode="&#x2c6;" horiz-adv-x="624" d="M-51 1243l221 293h285l221 -293h-213l-152 162l-149 -162h-213z" />
<glyph unicode="&#x2dc;" horiz-adv-x="684" d="M-37 1395q87 105 197 118.5t223 -63.5q64 -32 133 -16t102 67l107 -147q-68 -95 -190 -113t-222 45q-68 41 -134 28.5t-111 -71.5z" />
<glyph unicode="&#x2000;" horiz-adv-x="1046" />
<glyph unicode="&#x2001;" horiz-adv-x="2093" />
<glyph unicode="&#x2002;" horiz-adv-x="1046" />
<glyph unicode="&#x2003;" horiz-adv-x="2093" />
<glyph unicode="&#x2004;" horiz-adv-x="697" />
<glyph unicode="&#x2005;" horiz-adv-x="523" />
<glyph unicode="&#x2006;" horiz-adv-x="348" />
<glyph unicode="&#x2007;" horiz-adv-x="348" />
<glyph unicode="&#x2008;" horiz-adv-x="261" />
<glyph unicode="&#x2009;" horiz-adv-x="418" />
<glyph unicode="&#x200a;" horiz-adv-x="116" />
<glyph unicode="&#x2010;" horiz-adv-x="888" d="M113 436v271h661v-271h-661z" />
<glyph unicode="&#x2011;" horiz-adv-x="888" d="M113 436v271h661v-271h-661z" />
<glyph unicode="&#x2012;" horiz-adv-x="888" d="M113 436v271h661v-271h-661z" />
<glyph unicode="&#x2013;" horiz-adv-x="1024" d="M0 438v246h1024v-246h-1024z" />
<glyph unicode="&#x2014;" horiz-adv-x="2048" d="M0 438v246h2048v-246h-2048z" />
<glyph unicode="&#x2018;" horiz-adv-x="565" d="M80 1122q0 103 66 215t186 199l119 -80q-60 -46 -98.5 -131.5t-8.5 -120.5l139 -129q6 -82 -48.5 -138t-135.5 -56q-87 0 -153 63.5t-66 177.5z" />
<glyph unicode="&#x2019;" horiz-adv-x="565" d="M80 1341q-4 82 50.5 138.5t133.5 56.5q87 0 153 -64t66 -178q0 -103 -65.5 -214.5t-184.5 -198.5l-120 80q60 47 98.5 131.5t7.5 119.5z" />
<glyph unicode="&#x201a;" horiz-adv-x="565" d="M82 143q-6 82 48.5 138.5t135.5 56.5q86 0 151.5 -64t65.5 -178q2 -103 -64 -214.5t-186 -198.5l-120 79q60 47 98.5 132t7.5 120z" />
<glyph unicode="&#x201c;" horiz-adv-x="1040" d="M78 1122q-2 103 64 215t186 199l121 -80q-60 -47 -99 -132t-8 -120l137 -129q6 -82 -48.5 -138t-135.5 -56q-86 0 -151.5 63.5t-65.5 177.5zM559 1122q-2 103 64 215t186 199l121 -80q-60 -47 -99 -132t-8 -120l140 -129q4 -82 -51 -138t-134 -56q-87 0 -153 63.5 t-66 177.5z" />
<glyph unicode="&#x201d;" horiz-adv-x="1040" d="M78 1343q-6 82 49 138.5t135 56.5q87 0 153 -64t66 -178q0 -103 -65.5 -214.5t-184.5 -198.5l-120 80q60 46 98 131t8 120zM559 1343q-4 82 50.5 138.5t133.5 56.5q87 0 153.5 -64t66.5 -178q2 -103 -64 -214.5t-186 -198.5l-121 80q60 47 98.5 131.5t7.5 119.5z" />
<glyph unicode="&#x201e;" horiz-adv-x="1040" d="M78 141q-6 82 49 138.5t135 56.5q87 0 153 -64.5t66 -177.5q0 -103 -66 -215.5t-184 -197.5l-120 79q59 46 97.5 131t8.5 119zM559 141q0 88 52.5 141.5t131.5 53.5q87 0 153.5 -64.5t66.5 -177.5q2 -103 -64 -215.5t-186 -197.5l-121 79q60 47 98.5 131.5t7.5 118.5z " />
<glyph unicode="&#x2022;" horiz-adv-x="856" d="M113 766q0 130 92.5 222.5t222.5 92.5t222.5 -92.5t92.5 -222.5t-92 -221.5t-223 -91.5t-223 91.5t-92 221.5z" />
<glyph unicode="&#x2026;" horiz-adv-x="1746" d="M102 158q0 75 52.5 127.5t126.5 52.5q72 0 126 -53.5t54 -126.5q0 -72 -53 -124t-127 -52t-126.5 51.5t-52.5 124.5zM694 158q0 75 52 127.5t126 52.5q72 0 125.5 -53.5t53.5 -126.5q0 -72 -53 -124t-126 -52q-75 0 -126.5 51t-51.5 125zM1286 158q0 75 52 127.5 t124 52.5t126 -53.5t54 -126.5q0 -72 -53 -124t-127 -52t-125 51t-51 125z" />
<glyph unicode="&#x202f;" horiz-adv-x="418" />
<glyph unicode="&#x2039;" horiz-adv-x="761" d="M27 565l632 506v-264l-307 -242l307 -254v-264z" />
<glyph unicode="&#x203a;" horiz-adv-x="761" d="M104 47v264l306 254l-306 242v264l633 -506z" />
<glyph unicode="&#x205f;" horiz-adv-x="523" />
<glyph unicode="&#x20ac;" horiz-adv-x="1529" d="M10 498l78 157h205q-2 29 -2 88q0 55 2 82h-258l78 156h206q62 241 239.5 389t432.5 148q225 0 385 -78l-96 -260q-122 67 -285 67q-129 0 -219.5 -69.5t-132.5 -196.5h528l-71 -156h-488q-4 -54 -4 -82q0 -30 4 -88h533l-70 -157h-430q41 -125 130.5 -191.5t219.5 -66.5 q91 0 177 26.5t147 73.5l100 -260q-63 -46 -171 -78.5t-257 -32.5q-252 0 -429 145.5t-240 383.5h-312z" />
<glyph unicode="&#x2122;" horiz-adv-x="1775" d="M61 1317v168h678v-168h-233v-565h-209v565h-236zM858 752v733h234l176 -369l182 369h233v-733h-194v469l-221 -394l-224 398v-473h-186z" />
<glyph unicode="&#x25fc;" horiz-adv-x="1126" d="M0 0v1126h1126v-1126h-1126z" />
<glyph unicode="&#xfb03;" horiz-adv-x="2033" d="M63 895v231h177q0 81 8 141t31 117t62.5 92t105.5 56.5t157 21.5q97 0 238 -24l-19 -219q-90 8 -114 8q-62 0 -101.5 -12.5t-59 -40t-26 -59t-6.5 -81.5h422q0 81 8 141t31 117t63 92t106 56.5t157 21.5q99 0 237 -24l-18 -219q-86 8 -115 8q-62 0 -101.5 -12.5t-59 -40 t-26 -59t-6.5 -81.5h668v-1126h-276v895h-392v-895h-276v895h-422v-895h-276v895h-177z" />
</font>
</defs>
</svg>
